<?xml version="1.0" encoding="UTF-8"?>
<svg id="Layer_1" data-name="Layer 1" xmlns="http://www.w3.org/2000/svg" viewBox="0 0 125.45 34.09">
  <defs>
    <style>
      .cls-1 {
        fill: #64d0dd;
      }

      .cls-2 {
        fill: #63cedb;
      }

      .cls-3 {
        fill: #63cedc;
      }

      .cls-4 {
        fill: #fff;
      }

      .cls-5 {
        fill: #063764;
      }

      .cls-6 {
        fill: #64cfdc;
      }

      .cls-7 {
        fill: #063664;
      }

      .cls-8 {
        fill: #073765;
      }
    </style>
  </defs>
  <rect class="cls-7" y="5.65" width="125.45" height="22.8" rx="6.77" ry="6.77"/>
  <path class="cls-6" d="M36.32,28.43c-1.1,1.18-2.31,2.22-3.68,3.08-6.81,4.26-15.98,3.25-21.71-3.07-1.13-1.28-2.04-2.66-2.76-4.16-.93-1.95-1.4-4.02-1.61-6.15-.07-.71-.03-1.44,0-2.15.01-.43.06-.86.14-1.28.15-.76.33-1.52.51-2.3.39-1.33.87-2.61,1.61-3.77.64-1.02,1.39-1.97,2.09-2.95.96-1.02,1.99-1.95,3.16-2.74,6.98-4.72,16.29-3.66,22.04,2.51.06.07.13.14.22.23.05.05.07.07.11.11.06.07.12.13.18.2.55.77,1.12,1.5,1.62,2.28.88,1.38,1.46,2.89,1.9,4.48.49,1.94.65,3.88.47,5.84-.24,2.7-1.07,5.22-2.54,7.5-.52.81-1.15,1.56-1.72,2.33M35.37,22.04c.76,0,1.52,0,2.28,0,.23,0,.33-.07.39-.28,1.04-3.28,1-6.55-.12-9.8-.08-.22-.17-.3-.42-.3-9.26,0-18.52,0-27.79,0-.23,0-.35.06-.43.29-1.11,3.23-1.17,6.48-.15,9.74.09.29.22.36.5.36,8.55,0,17.11,0,25.72,0M18.54,26.89v-3.11h3.42v3.51h3.32v-3.51h3.43v3.51h3.32v-3.52h3.42v2.78c.91-1.16,1.61-2.32,2.15-3.61H9.62c.55,1.3,1.25,2.47,2.11,3.54.03-.01.06-.02.09-.03v-2.67h3.4v3.5h3.33c0-.13,0-.23,0-.39M17.6,6.79h-2.41v3.14h-3.41v-2.39c-.82,1.05-1.48,2.08-1.98,3.23h27.64c-.52-1.15-1.16-2.19-2-3.12v2.29h-3.41v-3.12h-3.33v3.12h-3.42v-3.12h-3.34v3.12h-3.4v-3.1c-.05-.02-.07-.03-.09-.03-.26,0-.52,0-.84,0Z"/>
  <path class="cls-8" d="M35.34,22.04c-8.58,0-17.14,0-25.69,0-.29,0-.41-.07-.5-.36-1.02-3.27-.96-6.51.15-9.74.08-.23.19-.29.43-.29,9.26,0,18.52,0,27.79,0,.24,0,.34.08.42.3,1.12,3.25,1.16,6.52.12,9.8-.07.22-.17.29-.39.28-.76-.01-1.52,0-2.32,0M35.45,20.27v-7.75h-3.4v8.65h3.4c0-.29,0-.56,0-.9M28.7,18.83v-6.31h-3.4v8.64h3.4c0-.77,0-1.52,0-2.33M14.53,12.5h-2.71v8.67h3.35v-8.67c-.21,0-.39,0-.64,0M20.73,12.5h-2.17v8.67h3.37v-8.63s-.08-.03-.1-.03c-.34,0-.69,0-1.09,0Z"/>
  <path class="cls-5" d="M18.54,26.92c0,.13,0,.23,0,.36h-3.33v-3.5h-3.4v2.67s-.06.02-.09.03c-.86-1.07-1.55-2.24-2.11-3.54h27.99c-.54,1.29-1.24,2.45-2.15,3.61v-2.78h-3.42v3.52h-3.32v-3.51h-3.43v3.51h-3.32v-3.51h-3.42c0,1.04,0,2.07,0,3.14Z"/>
  <path class="cls-8" d="M17.63,6.79c.29,0,.55,0,.81,0,.02,0,.04.01.09.03v3.1h3.4v-3.12h3.34v3.12h3.42v-3.12h3.33v3.12h3.41v-2.29c.84.93,1.48,1.97,2,3.12H9.8c.5-1.15,1.16-2.18,1.98-3.23v2.39h3.41v-3.14c.83,0,1.62,0,2.44,0Z"/>
  <path class="cls-2" d="M35.45,20.3c0,.3,0,.57,0,.86h-3.4v-8.65h3.4c0,2.59,0,5.17,0,7.78Z"/>
  <path class="cls-3" d="M28.7,18.86c0,.78,0,1.53,0,2.3h-3.4v-8.64h3.4c0,2.11,0,4.21,0,6.34Z"/>
  <path class="cls-1" d="M14.56,12.5c.22,0,.4,0,.61,0v8.67h-3.35v-8.67c.9,0,1.81,0,2.74,0Z"/>
  <path class="cls-1" d="M20.76,12.5c.38,0,.72,0,1.06,0,.03,0,.06.02.1.03v8.63h-3.37v-8.67c.73,0,1.45,0,2.2,0Z"/>
  <g>
    <path class="cls-4" d="M46.89,14.6l-1.6-1.91v3.45h-.95v-5.06h.82l1.8,2.26,1.8-2.26h.82v5.06h-.94v-3.46l-1.59,1.91h-.15Z"/>
    <path class="cls-4" d="M52.88,11.02c1.47,0,2.52,1.09,2.52,2.61s-1.05,2.59-2.52,2.59-2.52-1.06-2.52-2.59,1.05-2.61,2.52-2.61ZM52.89,15.29c.93,0,1.55-.67,1.55-1.66s-.62-1.67-1.55-1.67-1.55.69-1.55,1.67.63,1.66,1.55,1.66Z"/>
    <path class="cls-4" d="M58.24,11.09c1.54,0,2.41.97,2.41,2.52s-.89,2.53-2.41,2.53h-2.05v-5.06h2.05ZM59.68,13.61c0-1.06-.47-1.66-1.54-1.66h-1v3.32h1c1.08,0,1.54-.61,1.54-1.66Z"/>
    <path class="cls-4" d="M65.03,16.15h-3.58v-5.06h3.53v.87h-2.58v1.17h2.26v.87h-2.26v1.28h2.64v.87Z"/>
    <path class="cls-4" d="M69.31,16.15h-3.51v-5.06h.95v4.19h2.57v.87Z"/>
    <path class="cls-4" d="M73.44,16.15h-3.51v-5.06h.95v4.19h2.57v.87Z"/>
    <path class="cls-4" d="M74.06,11.09h2.22c.86,0,1.47.56,1.47,1.38,0,.45-.17.8-.57,1.07.55.21.82.67.82,1.2,0,.83-.6,1.4-1.48,1.4h-2.46v-5.06ZM76.15,13.21c.39,0,.62-.26.62-.63,0-.4-.28-.63-.66-.63h-1.11v1.26h1.15ZM76.37,15.29c.38,0,.63-.26.63-.62,0-.39-.25-.66-.63-.66h-1.36v1.28h1.36Z"/>
    <path class="cls-4" d="M81.9,15.16h-2.21l-.35.99h-1.01l1.92-5.06h1.09l1.93,5.06h-1.01l-.35-.99ZM79.95,14.36h1.67l-.83-2.22-.84,2.22Z"/>
    <path class="cls-4" d="M88.03,16.15h-.94v-2.14h-2.32v2.14h-.95v-5.06h.95v2.04h2.32v-2.04h.94v5.06Z"/>
    <path class="cls-4" d="M90,16.15h-.95v-5.06h.86l2.74,3.47v-3.47h.95v5.06h-.87l-2.73-3.43v3.43Z"/>
    <path class="cls-4" d="M96.92,14.46h-2.43v-.8h2.43v.8Z"/>
    <path class="cls-4" d="M98.3,11.98h-1.49v-.89h3.92v.89h-1.49v4.16h-.94v-4.16Z"/>
    <path class="cls-4" d="M103.38,14.66h-1.1v1.49h-.95v-5.06h2.21c.96,0,1.74.65,1.74,1.79,0,.73-.39,1.31-.93,1.59l1.26,1.68h-1.14l-1.09-1.49ZM102.28,11.96v1.83h1.16c.5,0,.87-.37.87-.91,0-.59-.38-.92-.87-.92h-1.16Z"/>
    <path class="cls-4" d="M109.86,16.15h-3.58v-5.06h3.53v.87h-2.58v1.17h2.26v.87h-2.26v1.28h2.64v.87Z"/>
    <path class="cls-4" d="M111.59,16.15h-.95v-5.06h3.39v.87h-2.45v1.19h1.92v.87h-1.92v2.13Z"/>
    <path class="cls-4" d="M115.65,16.15h-.95v-5.06h3.39v.87h-2.45v1.19h1.92v.87h-1.92v2.13Z"/>
  </g>
  <g>
    <path class="cls-6" d="M67.02,24.77h-.95v-5.06h3.39v.87h-2.45v1.19h1.92v.87h-1.92v2.13Z"/>
    <path class="cls-6" d="M72.3,19.63c1.47,0,2.52,1.09,2.52,2.61s-1.05,2.59-2.52,2.59-2.52-1.06-2.52-2.59,1.05-2.61,2.52-2.61ZM72.31,23.91c.93,0,1.55-.67,1.55-1.66s-.62-1.67-1.55-1.67-1.55.69-1.55,1.67.63,1.66,1.55,1.66Z"/>
    <path class="cls-6" d="M77.66,23.28h-1.1v1.49h-.95v-5.06h2.21c.96,0,1.74.65,1.74,1.79,0,.73-.39,1.31-.93,1.59l1.26,1.68h-1.14l-1.09-1.49ZM76.56,20.58v1.83h1.15c.51,0,.87-.37.87-.91,0-.59-.38-.92-.87-.92h-1.15Z"/>
    <path class="cls-6" d="M84.12,21.86l1.15-2.15h1.06l-1.45,2.61,1.76,2.44h-1.18l-1.41-2.04h-.82v2.04h-.95v-5.06h.95v2.15h.89Z"/>
    <path class="cls-6" d="M88.07,24.77h-.95v-5.06h.95v5.06Z"/>
    <path class="cls-6" d="M91.14,19.71c1.54,0,2.41.97,2.41,2.52s-.89,2.53-2.41,2.53h-2.05v-5.06h2.05ZM92.58,22.23c0-1.06-.47-1.66-1.54-1.66h-1v3.32h1c1.08,0,1.54-.61,1.54-1.66Z"/>
    <path class="cls-6" d="M97.45,19.95l-.08.89c-.25-.16-.87-.32-1.38-.32s-.88.17-.88.58.34.5.66.6l.69.22c.79.25,1.24.6,1.24,1.38,0,.9-.72,1.54-1.81,1.54-.67,0-1.44-.18-1.76-.37l.08-.9c.23.16,1.01.38,1.6.38.5,0,.9-.19.9-.6,0-.32-.18-.46-.58-.58l-.75-.22c-.61-.17-1.25-.52-1.25-1.37,0-.93.69-1.55,1.8-1.55.67,0,1.15.14,1.53.32Z"/>
  </g>
</svg>