<?xml version="1.0" encoding="UTF-8"?>
<svg id="Layer_1" data-name="Layer 1" xmlns="http://www.w3.org/2000/svg" viewBox="0 0 1699 339.65">
  <defs>
    <style>
      .cls-1 {
        fill: #073765;
      }

      .cls-1, .cls-2, .cls-3, .cls-4, .cls-5, .cls-6, .cls-7 {
        stroke-width: 0px;
      }

      .cls-2 {
        fill: #063664;
      }

      .cls-3 {
        fill: #63cedb;
      }

      .cls-4 {
        fill: #64d0dd;
      }

      .cls-5 {
        fill: #63cedc;
      }

      .cls-6 {
        fill: #444;
      }

      .cls-7 {
        fill: #64cfdc;
      }
    </style>
  </defs>
  <g>
    <circle class="cls-1" cx="171.28" cy="169.82" r="156.64"/>
    <path class="cls-7" d="m296.91,283.26c-10.96,11.76-23.02,22.12-36.67,30.69-67.85,42.45-159.22,32.38-216.32-30.59-11.26-12.75-20.33-26.5-27.5-41.45C7.16,222.48,2.48,201.85.39,180.63c-.7-7.07-.3-14.35,0-21.42.1-4.28.6-8.57,1.39-12.75,1.49-7.57,3.29-15.15,5.08-22.92,3.89-13.25,8.67-26.01,16.04-37.56,6.38-10.16,13.85-19.63,20.82-29.39,9.57-10.16,19.83-19.43,31.49-27.3C144.76-17.75,237.53-7.19,294.82,54.28c.6.7,1.3,1.39,2.19,2.29.5.5.7.7,1.1,1.1.6.7,1.2,1.3,1.79,1.99,5.48,7.67,11.16,14.95,16.14,22.72,8.77,13.75,14.55,28.8,18.93,44.64,4.88,19.33,6.48,38.66,4.68,58.19-2.39,26.9-10.66,52.01-25.31,74.73-5.18,8.07-11.46,15.54-17.14,23.22m-9.76-63.57h22.72c2.29,0,3.29-.7,3.89-2.79,10.36-32.68,9.96-65.26-1.2-97.65-.8-2.19-1.69-2.99-4.18-2.99H31.77c-2.29,0-3.49.6-4.28,2.89-11.06,32.18-11.66,64.57-1.49,97.05.9,2.89,2.19,3.59,4.98,3.59h256.27m-167.49,48.23v-30.99h34.08v34.97h33.08v-34.97h34.18v34.97h33.08v-35.07h34.08v27.7c9.07-11.56,16.04-23.12,21.42-35.97H30.88c5.48,12.95,12.45,24.61,21.02,35.27.3-.1.6-.2.9-.3v-26.6h33.88v34.87h33.18v-3.89m-9.47-200.27h-24.01v31.29h-33.98v-23.81c-8.17,10.46-14.75,20.72-19.73,32.18h275.4c-5.18-11.46-11.56-21.82-19.93-31.09v22.82h-33.98v-31.09h-33.18v31.09h-34.08v-31.09h-33.28v31.09h-33.88v-30.89c-.5-.2-.7-.3-.9-.3h-8.37l-.1-.2Z"/>
    <path class="cls-3" d="m288.25,202.25v8.57h-33.88v-86.19h33.88v77.62Z"/>
    <path class="cls-5" d="m220.99,187.9v22.92h-33.88v-86.09h33.88v63.17Z"/>
    <path class="cls-4" d="m80.1,124.53h6.08v86.39h-33.38v-86.39h27.3Z"/>
    <path class="cls-4" d="m141.88,124.53h10.56c.3,0,.6.2,1,.3v85.99h-33.58v-86.39h21.92l.1.1Z"/>
  </g>
  <g>
    <path class="cls-2" d="m411.14,142.75l-28.94-34.55v62.4h-17.18v-91.53h14.83l32.56,40.88,32.56-40.88h14.83v91.53h-17v-62.58l-28.76,34.55h-2.71l-.18.18Z"/>
    <path class="cls-2" d="m519.48,77.99c26.59,0,45.58,19.72,45.58,47.21s-18.99,46.85-45.58,46.85-45.58-19.17-45.58-46.85,18.99-47.21,45.58-47.21Zm.18,77.24c16.82,0,28.04-12.12,28.04-30.03s-11.21-30.21-28.04-30.21-28.04,12.48-28.04,30.21,11.4,30.03,28.04,30.03Z"/>
    <path class="cls-2" d="m616.44,79.26c27.86,0,43.59,17.55,43.59,45.58s-16.1,45.76-43.59,45.76h-37.08v-91.53h37.08v.18Zm26.05,45.58c0-19.17-8.5-30.03-27.86-30.03h-18.09v60.05h18.09c19.54,0,27.86-11.03,27.86-30.03Z"/>
    <path class="cls-2" d="m739.25,170.79h-64.75v-91.53h63.85v15.74h-46.67v21.16h40.88v15.74h-40.88v23.15h47.75v15.74h-.18Z"/>
    <path class="cls-2" d="m816.67,170.79h-63.49v-91.53h17.18v75.79h46.49v15.74h-.18Z"/>
    <path class="cls-2" d="m891.37,170.79h-63.49v-91.53h17.18v75.79h46.49v15.74h-.18Z"/>
    <path class="cls-2" d="m902.59,79.26h40.16c15.56,0,26.59,10.13,26.59,24.96,0,8.14-3.07,14.47-10.31,19.35,9.95,3.8,14.83,12.12,14.83,21.71,0,15.01-10.85,25.32-26.77,25.32h-44.5v-91.53.18Zm37.8,38.35c7.05,0,11.21-4.7,11.21-11.4,0-7.24-5.06-11.4-11.94-11.4h-20.08v22.79h20.8Zm3.98,37.62c6.87,0,11.4-4.7,11.4-11.21,0-7.05-4.52-11.94-11.4-11.94h-24.6v23.15h24.6Z"/>
    <path class="cls-2" d="m1044.4,152.88h-39.97l-6.33,17.91h-18.27l34.73-91.53h19.72l34.91,91.53h-18.27l-6.33-17.91h-.18Zm-35.27-14.47h30.21l-15.01-40.16-15.19,40.16Z"/>
    <path class="cls-2" d="m1155.28,170.79h-17v-38.71h-41.96v38.71h-17.18v-91.53h17.18v36.9h41.96v-36.9h17v91.53Z"/>
    <path class="cls-2" d="m1190.91,170.79h-17.18v-91.53h15.56l49.56,62.77v-62.77h17.18v91.53h-15.74l-49.38-62.04s0,62.04,0,62.04Z"/>
    <path class="cls-2" d="m1316.08,140.22h-43.95v-14.47h43.95v14.47Z"/>
    <path class="cls-2" d="m1341.04,95.36h-26.95v-16.1h70.9v16.1h-26.95v75.25h-17v-75.25Z"/>
    <path class="cls-2" d="m1432.93,143.83h-19.9v26.95h-17.18v-91.53h39.97c17.36,0,31.47,11.76,31.47,32.38,0,13.2-7.05,23.7-16.82,28.76l22.79,30.39h-20.62s-19.72-26.95-19.72-26.95Zm-19.9-48.84v33.1h20.98c9.04,0,15.74-6.69,15.74-16.46,0-10.67-6.87-16.64-15.74-16.64h-20.98Z"/>
    <path class="cls-2" d="m1550.14,170.79h-64.75v-91.53h63.85v15.74h-46.67v21.16h40.88v15.74h-40.88v23.15h47.75v15.74h-.18Z"/>
    <path class="cls-2" d="m1581.43,170.79h-17.18v-91.53h61.32v15.74h-44.32v21.52h34.73v15.74h-34.73v38.53h.18Z"/>
    <path class="cls-2" d="m1654.87,170.79h-17.18v-91.53h61.32v15.74h-44.32v21.52h34.73v15.74h-34.73v38.53h.18Z"/>
  </g>
  <g>
    <path class="cls-6" d="m375.28,251.91h-10.26v-58.64h10.26v58.64Z"/>
    <path class="cls-6" d="m548.6,251.91h-41.49v-58.64h40.91v10.08h-29.9v13.56h26.19v10.08h-26.19v14.83h30.59v10.08h-.12Z"/>
    <path class="cls-6" d="m398.53,251.91h-11.01v-58.64h9.97l31.75,40.21v-40.21h11.01v58.64h-10.08l-31.64-39.75s0,39.75,0,39.75Z"/>
    <path class="cls-6" d="m468.29,203.61h-17.3v-10.33h45.52v10.33h-17.3v48.3h-10.91v-48.3Z"/>
    <path class="cls-6" d="m581.54,234.57h-12.72v17.23h-10.99v-58.52h25.56c11.1,0,20.12,7.52,20.12,20.7,0,8.44-4.51,15.15-10.76,18.39l14.57,19.43h-13.19s-12.61-17.23-12.61-17.23Zm-12.72-31.23v21.17h13.42c5.78,0,10.06-4.28,10.06-10.52,0-6.82-4.4-10.64-10.06-10.64h-13.42Z"/>
    <path class="cls-6" d="m627.13,251.91h-11.01v-58.64h9.97l31.75,40.21v-40.21h11.01v58.64h-10.08l-31.64-39.75s0,39.75,0,39.75Z"/>
  </g>
</svg>